<svg xmlns="http://www.w3.org/2000/svg" x="0px" y="0px" width="50" height="50" viewBox="0 0 172 172" style=" fill:#000000;"><g fill="none" fill-rule="nonzero" stroke="none" stroke-width="1" stroke-linecap="butt" stroke-linejoin="miter" stroke-miterlimit="10" stroke-dasharray="" stroke-dashoffset="0" font-family="none" font-weight="none" font-size="none" text-anchor="none" style="mix-blend-mode: normal"><path d="M0,172v-172h172v172z" fill="none"></path><g fill="#3498db"><path d="M40.72906,10.27969c-2.64719,-0.215 -5.59,0.55094 -8.30438,2.45906c-2.39187,1.66625 -7.55187,5.76469 -12.37594,10.40063c-2.40531,2.31125 -4.70312,4.71656 -6.47687,7.08156c-1.78719,2.365 -3.34594,4.52844 -3.25188,7.67281c0.09406,2.82188 0.37625,11.16656 6.38281,23.95906c6.00656,12.77906 17.65687,30.315 40.37969,53.05125c22.73625,22.73625 40.27219,34.38656 53.05125,40.39312c12.77906,6.00656 21.13719,6.28875 23.95906,6.38281c3.13094,0.09406 5.29437,-1.46469 7.65937,-3.25187c2.365,-1.78719 4.77031,-4.07156 7.08156,-6.47688c4.6225,-4.82406 8.72094,-9.98406 10.38719,-12.37594c3.80281,-5.41531 3.17125,-11.81156 -1.06156,-14.78125c-2.66063,-1.86781 -27.13031,-18.15406 -30.81219,-20.41156c-3.73562,-2.28437 -8.03562,-1.24969 -11.87875,0.77938c-3.02344,1.59906 -11.20687,6.28875 -13.545,7.6325c-1.76031,-1.11531 -8.43875,-5.56313 -22.80344,-19.92781c-14.37812,-14.36469 -18.8125,-21.04313 -19.92781,-22.80344c1.34375,-2.33813 6.02,-10.48125 7.6325,-13.55844c2.01563,-3.82969 3.14438,-8.17 0.73906,-11.9325c-1.00781,-1.59906 -5.59,-8.57312 -10.2125,-15.57406c-4.63594,-7.00094 -9.03,-13.63906 -10.17219,-15.22469v-0.01344c-1.49156,-2.05594 -3.81625,-3.26531 -6.45,-3.48031zM93.2025,17.2c-5.84531,0 -10.6425,4.82406 -10.6425,10.66938v34.05062c0,5.65719 4.67625,10.32 10.32,10.32h6.32906c-0.17469,1.075 -0.17469,2.58 -0.52406,3.31906c-0.71219,1.47812 -1.80062,2.64719 -4.13875,4.04469c-1.33031,0.80625 -1.96187,2.39188 -1.54531,3.87c0.41656,1.49156 1.77375,2.52625 3.31906,2.52625c4.13875,0 8.88219,-0.80625 13.27625,-3.25187c3.7625,-2.09625 6.97406,-5.73781 9.29875,-10.50813h25.585c5.64375,0 10.32,-4.66281 10.32,-10.32v-34.05062c0,-5.84531 -4.79719,-10.66938 -10.6425,-10.66938zM40.0975,17.3075c0.94063,0.12094 1.505,0.49719 1.505,0.49719c0.55094,0.76594 5.375,7.99531 9.9975,14.98281c4.6225,7.00094 9.33906,14.17656 10.15875,15.48c0.13438,0.20156 0.3225,2.48594 -1.02125,5.02563v0.01344c-1.51844,2.88906 -8.6,15.265 -8.6,15.265l-0.98094,1.73344l1.00781,1.72c0,0 5.28094,8.90906 22.07781,25.70594c16.81031,16.79688 25.71938,22.09125 25.71938,22.09125l1.72,1.00781l1.73344,-0.98094c0,0 12.34906,-7.06813 15.265,-8.6c2.53969,-1.33031 4.82406,-1.15563 5.09281,-0.99438c2.37844,1.46469 28.81,19.0275 30.43594,20.16969c0.05375,0.04031 1.49156,2.21719 -0.60469,5.20031h-0.01344c-1.26313,1.81406 -5.40188,7.06813 -9.71531,11.55625c-2.16344,2.24406 -4.38063,4.34031 -6.26188,5.75125c-1.88125,1.41094 -3.56094,1.85438 -3.29219,1.86781c-2.92937,-0.09406 -9.39281,-0.16125 -21.25812,-5.73781c-11.86531,-5.56312 -28.79656,-16.70281 -51.11625,-39.03594c-22.30625,-22.30625 -33.44594,-39.2375 -39.0225,-51.11625c-5.56313,-11.86531 -5.63031,-18.32875 -5.72438,-21.24469c0.01344,0.26875 0.45688,-1.42438 1.86781,-3.30563c1.41094,-1.88125 3.49375,-4.11187 5.73781,-6.27531c4.50156,-4.31344 9.74219,-8.45219 11.55625,-9.71531v0.01344c1.49156,-1.04812 2.795,-1.1825 3.73562,-1.075zM93.2025,24.08h50.955c2.08281,0 3.7625,1.67969 3.7625,3.78938v34.05062c0,2.28438 -1.16906,3.44 -3.44,3.44h-27.52c-1.43781,0 -2.74125,0.90031 -3.225,2.2575c-1.72,4.68969 -4.39406,7.40406 -7.48469,9.12406c-0.33594,0.18812 -0.73906,0.09406 -1.08844,0.26875c0.91375,-2.51281 1.47812,-5.10625 1.47812,-8.21031c0,-1.89469 -1.54531,-3.44 -3.44,-3.44h-10.32c-2.27094,0 -3.44,-1.15562 -3.44,-3.44v-34.05062c0,-2.10969 1.67969,-3.78938 3.7625,-3.78938z"></path></g></g></svg>