<?xml version="1.0" encoding="utf-8"?>
<!-- Generator: Adobe Illustrator 25.0.1, SVG Export Plug-In . SVG Version: 6.00 Build 0)  -->
<svg version="1.1" id="Layer_1" xmlns="http://www.w3.org/2000/svg" xmlns:xlink="http://www.w3.org/1999/xlink" x="0px" y="0px"
	 viewBox="0 0 159.1 68.8" style="enable-background:new 0 0 159.1 68.8;" xml:space="preserve">
<style type="text/css">
	.st0{fill:#FFFFFF;}
</style>
<path class="st0" d="M65.4,1.9v17.7c0,3.4-2.8,6.1-6.2,6.1H39.9c-2.3,0-4.4,0.8-6.1,2.3c-1.7-1.5-3.8-2.3-6.1-2.3H8.4
	c-3.4,0-6.2-2.7-6.2-6.1V1.9H65.4z M34.8,29.7c1.4-1.4,3.2-2.1,5.1-2.1h19.3c4.5,0,8.1-3.6,8.1-8V0H0.4v19.6c0,4.4,3.6,8,8.1,8h19.3
	c1.9,0,3.7,0.7,5.1,2.1l1,1L34.8,29.7z"/>
<path class="st0" d="M57.8,10c0,0.6-0.5,1-1.1,1c-0.6,0-1.1-0.4-1.1-1c0-0.6,0.5-1,1.1-1C57.3,9,57.8,9.5,57.8,10 M55.8,18.4h1.8
	v-6.5h-1.8V18.4z M52.3,14.4l2.4,3.9h-2l-1.6-2.6l-0.9,1.1v1.5h-1.8V9h1.8v4.3c0,0.8-0.1,1.6-0.1,1.6h0c0,0,0.4-0.7,0.8-1.2l1.4-1.9
	h2.1L52.3,14.4z M46.5,14.2c0-1.6-0.8-2.5-2-2.5c-1.1,0-1.6,0.6-2,1.2h0l0.1-1.1h-1.8v6.5h1.8v-3.9c0-0.7,0.4-1.3,1.1-1.3
	c0.7,0,1,0.5,1,1.3v3.8h1.8V14.2z M39,10c0,0.6-0.5,1-1.1,1c-0.6,0-1.1-0.4-1.1-1c0-0.6,0.5-1,1.1-1C38.5,9,39,9.5,39,10 M37,18.4
	h1.8v-6.5H37V18.4z M33.7,16.5c0-0.5-0.7-0.6-1.6-0.9c-1-0.3-2.2-0.7-2.2-2c0-1.2,1.2-2,2.6-2c1.3,0,2.5,0.6,3,1.5l-1.6,0.9
	c-0.2-0.6-0.6-1-1.4-1c-0.5,0-0.9,0.2-0.9,0.6c0,0.5,0.9,0.5,1.8,0.9c1,0.3,2,0.8,2,2c0,1.3-1.2,2.1-2.6,2.1c-1.5,0-2.7-0.6-3.3-1.7
	l1.6-0.9c0.2,0.7,0.8,1.2,1.6,1.2C33.3,17.2,33.7,17,33.7,16.5 M27.7,9.1h-1.8v7.5c0,0.7,0.1,1.2,0.4,1.5c0.3,0.3,0.7,0.5,1.4,0.5
	c0.2,0,0.4,0,0.7-0.1c0.2,0,0.4-0.1,0.5-0.2L29,17c-0.1,0.1-0.3,0.1-0.4,0.1c-0.1,0-0.2,0-0.4,0c-0.2,0-0.3-0.1-0.4-0.2
	c-0.1-0.1-0.1-0.3-0.1-0.6V9.1z M21.5,13c-0.7,0-1.2,0.5-1.4,1.4h2.6C22.7,13.6,22.2,13,21.5,13 M24.3,15.6h-4.2
	c0.1,1.1,0.7,1.6,1.4,1.6c0.7,0,1.2-0.5,1.3-1.1l1.5,0.9c-0.5,0.8-1.4,1.6-2.8,1.6c-1.8,0-3.2-1.3-3.2-3.4c0-2.1,1.4-3.4,3.1-3.4
	c1.7,0,2.9,1.2,2.9,3C24.4,15.2,24.3,15.6,24.3,15.6 M15,18.4h1.9V9.4H15V13h-3.6V9.4H9.6v8.9h1.9v-3.7H15V18.4z"/>
<path class="st0" d="M1.1,50.5c0-4.2,3.6-7.9,9.6-7.9c4.6,0,8.8,2.3,10.9,5.5l-5.8,3.7C15.3,49.5,13,48,10.5,48
	c-1.7,0-2.8,0.8-2.8,1.8c0,1.6,2.7,1.9,6.1,2.9c4.2,1.2,8,2.9,8,7.7c0,4.7-4.1,8.2-10,8.2c-5.1,0-9.5-2.4-11.8-6.5l6-3.8
	c0.9,3,3.1,4.9,6.1,4.9c2.1,0,3.1-1,3.1-2.2c0-2.1-3.5-2.3-7.1-3.4C4,56.5,1.1,54.7,1.1,50.5z"/>
<path class="st0" d="M35.8,67.3c-0.6,0.4-2.5,1.5-4.8,1.5c-3.8,0-6-2-6-6.1v-7.9h-2.7v-4.8H25v-3.4l6.5-3.5v6.9h3.8v4.8h-3.8V62
	c0,1.2,0.4,1.6,1.1,1.6c0.6,0,0.9-0.5,1.1-0.8L35.8,67.3z"/>
<path class="st0" d="M42.4,57.2l-5.7-2.9c1.8-2.9,5-4.8,9.2-4.8c4.4,0,7.8,2.5,7.8,7.2v6.6c0,1.9,0,3.5,0.4,5.1h-4.8
	c-0.6-0.7-0.9-1.3-1.2-2.2H48c-0.6,1-2.2,2.6-4.9,2.6c-3.1,0-5.7-2-5.7-5.4c0-4.2,3.8-5.3,6.6-5.9c2.3-0.5,3.7-0.8,3.7-1.9
	c0-0.7-0.8-1.2-1.8-1.2C44.3,54.3,42.9,55.3,42.4,57.2z M47.7,59.9c-0.4,0.5-1.2,0.9-2.3,1.2c-1.1,0.3-1.9,0.7-1.9,1.6
	c0,0.8,0.6,1.4,1.8,1.4c1.3,0,2.4-0.8,2.4-2.6V59.9z"/>
<path class="st0" d="M68.2,65.4c-1,1.9-2.6,3.4-5.1,3.4c-3.7,0-6.8-3.7-6.8-9.6s3.1-9.6,6.8-9.6c2.5,0,3.9,1.5,4.8,2.8H68V41.9h6.5
	v26.5H68l0.3-2.9H68.2z M68.2,59.1c0-2.9-1-4.5-2.6-4.5c-1.6,0-2.6,1.6-2.6,4.5s1,4.5,2.6,4.5C67.2,63.6,68.2,62,68.2,59.1z"/>
<path class="st0" d="M85,44.9c0,2-1.6,3.4-3.6,3.4c-2,0-3.6-1.4-3.6-3.4s1.6-3.4,3.6-3.4C83.4,41.5,85,42.9,85,44.9z M78.1,49.9h6.6
	v18.4h-6.6V49.9z"/>
<path class="st0" d="M105.5,68.3h-6.6V57.7c0-1.6-0.4-2.8-1.9-2.8s-2.2,1-2.2,2.9v10.5h-6.6V49.9h6.6l-0.3,2.9h0.1
	c1-1.8,2.5-3.4,5.4-3.4c3.4,0,5.4,2.5,5.4,6.9V68.3z"/>
<path class="st0" d="M126.5,63.5H118l-1.5,4.8h-6.7l8.5-25.3h8.3l8.5,25.3h-7L126.5,63.5z M119.7,57.9h5.1l-1.7-5.4
	c-0.5-1.5-0.7-3-0.7-3h-0.1c0,0-0.3,1.5-0.8,3L119.7,57.9z"/>
<path class="st0" d="M135.2,55.6c0-8.2,5.3-13,11.9-13c6.7,0,12,4.8,12,13s-5.3,13.2-12,13.2C140.5,68.8,135.2,63.8,135.2,55.6z
	 M147.2,48.6c-3.6,0-5,3.2-5,7.1s1.4,7.2,5,7.2c3.6,0,5-3.3,5-7.2S150.7,48.6,147.2,48.6z"/>
</svg>
