<svg xmlns="http://www.w3.org/2000/svg" x="0px" y="0px" width="50" height="50" viewBox="0 0 172 172" style=" fill:#000000;"><g fill="none" fill-rule="nonzero" stroke="none" stroke-width="1" stroke-linecap="butt" stroke-linejoin="miter" stroke-miterlimit="10" stroke-dasharray="" stroke-dashoffset="0" font-family="none" font-weight="none" font-size="none" text-anchor="none" style="mix-blend-mode: normal"><path d="M0,172v-172h172v172z" fill="none"></path><g fill="#3498db"><path d="M24.08,6.88v158.24h123.84v-112.10906l-47.52844,-46.13094zM30.96,13.76h65.36v44.72h44.72v99.76h-110.08zM103.2,19.18875l33.39219,32.41125h-33.39219zM81.76719,68.37c-2.58,0 -5.25406,1.46469 -6.42312,3.64156c-1.1825,2.16344 -1.26313,4.48812 -0.9675,6.90687c0.45687,3.81625 2.19031,8.12969 4.43437,12.55063c-1.11531,3.7625 -1.65281,7.04125 -3.3325,11.05906c-2.13656,5.11969 -4.75687,9.17781 -7.26969,13.4375c-3.27875,1.53187 -7.4175,2.9025 -9.83625,4.48812c-2.71437,1.78719 -4.86437,3.38625 -6.1275,5.92594c-0.61812,1.26313 -0.94062,3.06375 -0.3225,4.68969c0.61813,1.62594 1.90813,2.6875 3.23844,3.37281c2.82188,1.49156 6.07375,0.56438 8.42531,-1.02125c2.35156,-1.58562 4.44781,-3.91031 6.5575,-6.74562c1.06156,-1.43781 1.90813,-3.7625 2.95625,-5.44219c3.37281,-1.49156 5.76469,-3.03688 9.59438,-4.35375c5.17344,-1.78719 9.7825,-2.53969 14.62,-3.58781c4.04469,2.72781 8.34469,4.85094 13.04781,4.85094c2.66063,0 4.71656,-0.12094 6.71875,-1.20937c2.01563,-1.08844 3.225,-3.70875 3.225,-5.71094c0,-1.62594 -0.71219,-3.35937 -1.84094,-4.47469c-1.14219,-1.11531 -2.48594,-1.70656 -3.87,-2.08281c-2.74125,-0.73906 -5.85875,-0.68531 -9.44656,-0.3225c-1.89469,0.20156 -4.43437,1.20938 -6.54406,1.59906c-0.28219,-0.215 -0.55094,-0.30906 -0.83313,-0.55094c-4.28656,-3.69531 -8.30437,-8.80156 -11.2875,-13.88094c-0.17469,-0.30906 -0.14781,-0.52406 -0.3225,-0.83313c0.72563,-2.71437 2.15,-5.87219 2.4725,-8.25062c0.44344,-3.29219 0.5375,-6.16781 -0.25531,-8.80156c-0.40312,-1.31688 -1.075,-2.64719 -2.24406,-3.66844c-1.16906,-1.02125 -2.82188,-1.58563 -4.36719,-1.58563zM81.485,75.22313c0.04031,0 0.1075,0.02687 0.16125,0.04031c0.01344,0.02688 0.04031,0.01344 0.14781,0.34938c0.18812,0.63156 0.08062,2.41875 0.01344,4.00437c-0.08062,-0.40312 -0.55094,-1.15562 -0.59125,-1.51844c-0.20156,-1.59906 0.05375,-2.62031 0.16125,-2.795c0.02688,-0.06719 0.06719,-0.08062 0.1075,-0.08062zM83.56781,99.35688c2.12312,3.05031 4.47469,5.89906 7.10844,8.51937c-3.52062,0.94063 -6.67844,1.27656 -10.22594,2.49938c-0.7525,0.25531 -1.1825,0.61812 -1.92156,0.88687c1.04813,-2.19031 2.35156,-3.81625 3.29219,-6.07375c0.86,-2.05594 1.00781,-3.78937 1.74688,-5.83187z"></path></g></g></svg>