<svg xmlns="http://www.w3.org/2000/svg" x="0px" y="0px" width="50" height="50" viewBox="0 0 172 172" style=" fill:#000000;"><g fill="none" fill-rule="nonzero" stroke="none" stroke-width="1" stroke-linecap="butt" stroke-linejoin="miter" stroke-miterlimit="10" stroke-dasharray="" stroke-dashoffset="0" font-family="none" font-weight="none" font-size="none" text-anchor="none" style="mix-blend-mode: normal"><path d="M0,172v-172h172v172z" fill="none"></path><g fill="#3498db"><path d="M86,10.32c-19.04094,0 -34.4,15.35906 -34.4,34.4v20.64c0,11.13969 5.45563,21.13719 13.76,27.4125v15.5875c0,0.36281 -0.06719,0.67188 -0.9675,1.505c-0.90031,0.83313 -2.49937,1.94844 -4.6225,3.01c-4.23281,2.12313 -10.34687,4.3 -16.555,7.31c-6.20812,3.01 -12.64469,6.83969 -17.63,12.3625c-4.98531,5.52281 -8.385,12.92688 -8.385,22.2525v3.44h137.6v-3.44c0,-9.40625 -3.39969,-16.83719 -8.385,-22.36c-4.98531,-5.52281 -11.42187,-9.28531 -17.63,-12.255c-6.20812,-2.96969 -12.33562,-5.21375 -16.555,-7.31c-2.10969,-1.04812 -3.73562,-2.06937 -4.6225,-2.9025c-0.88687,-0.83312 -0.9675,-1.1825 -0.9675,-1.6125v-15.5875c8.30438,-6.27531 13.76,-16.27281 13.76,-27.4125v-20.64c0,-19.04094 -15.35906,-34.4 -34.4,-34.4zM86,17.2c15.35906,0 27.52,12.16094 27.52,27.52v20.64c0,9.48688 -4.95844,18.03313 -12.255,22.8975l-1.505,1.075v19.0275c0,2.66063 1.37063,5.01219 3.1175,6.665c1.74688,1.65281 3.93719,2.88906 6.3425,4.085c4.81063,2.39188 10.72313,4.515 16.555,7.31c5.83188,2.795 11.43531,6.16781 15.48,10.6425c3.35938,3.70875 5.30781,8.46563 6.02,14.2975h-122.55c0.71219,-5.76469 2.67406,-10.46781 6.02,-14.19c4.04469,-4.48812 9.64813,-7.91469 15.48,-10.75c5.83188,-2.83531 11.75781,-5.02562 16.555,-7.4175c2.39188,-1.19594 4.60906,-2.45906 6.3425,-4.085c1.73344,-1.62594 3.1175,-3.91031 3.1175,-6.5575v-19.0275l-1.505,-1.075c-7.29656,-4.86437 -12.255,-13.41062 -12.255,-22.8975v-20.64c0,-15.35906 12.16094,-27.52 27.52,-27.52z"></path></g></g></svg>