<svg xmlns="http://www.w3.org/2000/svg" x="0px" y="0px" width="24" height="24" viewBox="0 0 172 172" style=" fill:#000000;"><g fill="none" fill-rule="nonzero" stroke="none" stroke-width="1" stroke-linecap="butt" stroke-linejoin="miter" stroke-miterlimit="10" stroke-dasharray="" stroke-dashoffset="0" font-family="none" font-weight="none" font-size="none" text-anchor="none" style="mix-blend-mode: normal"><path d="M0,172v-172h172v172z" fill="none"></path><g fill="#3498db"><path d="M28.66667,21.5c-3.139,0 -7.16667,2.35067 -7.16667,7.16667c0,32.5295 13.19238,63.59129 35.59538,86.23795c22.64667,22.403 53.70846,35.59538 86.23796,35.59538c4.816,0 7.16667,-4.02767 7.16667,-7.16667v-25.15332c0,-3.90583 -3.09287,-7.0875 -6.99869,-7.18066c-4.515,-0.1075 -10.19694,-0.37715 -13.78744,-1.00781c-3.88433,-0.688 -8.5663,-2.0126 -11.8558,-3.03743c-0.70233,-0.22217 -1.42493,-0.32194 -2.1416,-0.32194c-1.90633,0 -3.76071,0.74444 -5.15104,2.1276l-15.88704,15.80306c-10.97934,-5.7835 -19.77877,-12.5271 -27.22494,-20.01627c-7.48917,-7.44617 -14.23278,-16.2456 -20.01628,-27.22494l15.80306,-15.88704c1.90633,-1.9135 2.60833,-4.72664 1.80566,-7.30664c-1.01767,-3.28233 -2.3566,-7.95746 -3.03743,-11.8418c-0.63783,-3.5905 -0.89315,-9.27243 -1.00781,-13.78743c-0.09317,-3.90583 -3.27483,-6.9987 -7.18066,-6.9987zM86,21.5v14.33333c27.70633,0 50.16667,22.46033 50.16667,50.16667h14.33333c0,-35.6255 -28.8745,-64.5 -64.5,-64.5zM36.07129,35.83333h10.87598c0.215,3.64067 0.52216,6.60084 0.93783,8.94434c0.48017,2.72333 1.23591,5.90656 2.25358,9.50423l-8.6224,8.67838c-2.95983,-8.75767 -4.80715,-17.88912 -5.44499,-27.12695zM86,50.16667v14.33333c11.87517,0 21.5,9.62483 21.5,21.5h14.33333c0,-19.78717 -16.04617,-35.83333 -35.83333,-35.83333zM117.73209,121.86133c3.5905,1.01767 6.7809,1.77341 9.50423,2.25358c2.3435,0.41567 5.28967,0.72283 8.93034,0.93783v10.87598c-9.245,-0.63067 -18.36928,-2.49232 -27.12695,-5.44499z"></path></g></g></svg>