<svg xmlns="http://www.w3.org/2000/svg" x="0px" y="0px" width="24" height="24" viewBox="0 0 172 172" style=" fill:#000000;"><g fill="none" fill-rule="nonzero" stroke="none" stroke-width="1" stroke-linecap="butt" stroke-linejoin="miter" stroke-miterlimit="10" stroke-dasharray="" stroke-dashoffset="0" font-family="none" font-weight="none" font-size="none" text-anchor="none" style="mix-blend-mode: normal"><path d="M0,172v-172h172v172z" fill="none"></path><g fill="#3498db"><path d="M86,14.33333c-39.5815,0 -71.66667,32.08517 -71.66667,71.66667c0,39.5815 32.08517,71.66667 71.66667,71.66667c39.5815,0 71.66667,-32.08517 71.66667,-71.66667c0,-39.5815 -32.08517,-71.66667 -71.66667,-71.66667zM86,28.66667c31.66233,0 57.33333,25.671 57.33333,57.33333c0,11.44726 -3.40127,22.08127 -9.18229,31.03223l-5.51497,-4.2692c-11.12267,-8.5785 -31.6209,-12.42969 -42.63607,-12.42969c-11.01517,0 -31.52057,3.85119 -42.63607,12.42969l-5.51497,4.2832c-5.78498,-8.95301 -9.18229,-19.59469 -9.18229,-31.04622c0,-31.66233 25.671,-57.33333 57.33333,-57.33333zM86,41.20833c-12.84267,0 -23.29167,10.449 -23.29167,23.29167c0,12.84267 10.449,23.29167 23.29167,23.29167c12.84267,0 23.29167,-10.449 23.29167,-23.29167c0,-12.84267 -10.449,-23.29167 -23.29167,-23.29167zM86,55.54167c4.93783,0 8.95833,4.0205 8.95833,8.95833c0,4.93783 -4.0205,8.95833 -8.95833,8.95833c-4.93783,0 -8.95833,-4.0205 -8.95833,-8.95833c0,-4.93783 4.0205,-8.95833 8.95833,-8.95833zM86,114.66667c22.22178,0 34.17135,8.37409 39.7666,12.56966c-10.31172,9.94682 -24.30916,16.09701 -39.7666,16.09701c-15.45744,0 -29.45488,-6.15019 -39.7666,-16.09701c5.59525,-4.19557 17.54482,-12.56966 39.7666,-12.56966zM43.39193,124.26888c0.86694,0.95522 1.73852,1.90638 2.6595,2.79948c-0.92211,-0.89714 -1.79922,-1.84246 -2.6595,-2.79948zM128.37011,124.52083c-0.786,0.86389 -1.57074,1.73308 -2.40755,2.54753c0.83455,-0.80946 1.61454,-1.68769 2.40755,-2.54753z"></path></g></g></svg>